<!-- sample rectangle -->
<svg width="196.11568394503658" height="304.915625" viewBox="0 0 100 155.47742988544235" class="css-1j8o68f"><defs id="SvgjsDefs5007"><linearGradient id="SvgjsLinearGradient5012"><stop id="SvgjsStop5013" stop-color="#8f5e25" offset="0"></stop><stop id="SvgjsStop5014" stop-color="#fbf4a1" offset="0.5"></stop><stop id="SvgjsStop5015" stop-color="#8f5e25" offset="1"></stop></linearGradient><linearGradient id="SvgjsLinearGradient5016"><stop id="SvgjsStop5017" stop-color="#8f5e25" offset="0"></stop><stop id="SvgjsStop5018" stop-color="#fbf4a1" offset="0.5"></stop><stop id="SvgjsStop5019" stop-color="#8f5e25" offset="1"></stop></linearGradient></defs><g id="SvgjsG5008" featurekey="monogramFeature-0" transform="matrix(2.736173786448099,0,0,2.736173786448099,-0.14682922598549394,-60.1405514307025)" fill="url(#SvgjsLinearGradient5012)"><path d="M29.88 35.94 c1.02 -0.36 2.7 -1.26 3.12 -3.18 c0.48 -2.28 -0.6 -3.84 -3.36 -4.32 c-3.06 -0.54 -9.3 0.54 -15.18 3.3 c-5.04 2.4 -10.32 6.06 -11.28 10.2 c-0.9 4.14 1.14 7.38 7.08 12.9 c1.74 1.62 3.24 3.06 4.5 4.38 c6.54 -2.64 19.08 -6.18 20.52 -6.48 c1.56 -0.36 1.86 0.36 0.24 0.66 c-1.38 0.3 -13.26 3.72 -19.98 6.6 c4.62 4.86 6.18 7.98 5.58 11.82 c-0.72 4.8 -6.66 7.5 -12.84 6.9 c-5.94 -0.54 -8.7 -4.02 -8.16 -7.2 c0.78 -4.2 6.18 -8.04 12.06 -11.1 c0.36 -0.24 0.9 -0.42 1.38 -0.66 c-1.14 -1.2 -2.58 -2.58 -4.14 -4.14 c-6.6 -6.24 -8.88 -9.48 -7.92 -13.92 s4.62 -7.8 12.24 -11.16 c7.68 -3.42 12.9 -3.78 16.14 -3.24 c3.54 0.6 4.86 2.94 4.26 5.76 c-0.6 2.52 -3.18 3.78 -3.9 3.84 c-0.72 0.12 -1.08 -0.66 -0.36 -0.96 z M19.74 71.52 c0.48 -3 -0.6 -5.76 -5.4 -10.98 c-0.54 0.24 -0.96 0.48 -1.38 0.72 c-7.38 4.02 -10.98 7.02 -11.58 10.26 c-0.48 2.76 2.04 5.46 6.96 5.82 c6 0.36 10.8 -2.46 11.4 -5.82 z"></path></g></svg>